<?xml version="1.0" standalone="no"?>
<!DOCTYPE svg PUBLIC "-//W3C//DTD SVG 20010904//EN"
 "http://www.w3.org/TR/2001/REC-SVG-20010904/DTD/svg10.dtd">
<svg version="1.0" xmlns="http://www.w3.org/2000/svg"
 width="700.000000pt" height="700.000000pt" viewBox="0 0 700.000000 700.000000"
 preserveAspectRatio="xMidYMid meet">
<metadata>
Created by potrace 1.14, written by Peter Selinger 2001-2017
</metadata>
<g transform="translate(0.000000,700.000000) scale(0.100000,-0.100000)"
fill="#000000" stroke="none">
<path d="M3278 6996 c-1 -2 -39 -6 -83 -10 -164 -12 -352 -44 -540 -90 -935
-230 -1744 -851 -2217 -1701 -49 -87 -148 -289 -148 -301 0 -2 -9 -23 -20 -47
-57 -123 -157 -435 -186 -582 -2 -11 -10 -54 -19 -95 -29 -146 -36 -197 -52
-370 -10 -107 -10 -511 0 -610 19 -186 46 -345 88 -518 37 -152 101 -350 163
-500 49 -120 159 -346 201 -412 14 -22 25 -44 25 -50 0 -5 5 -10 10 -10 6 0
10 -5 10 -10 0 -10 142 -227 175 -268 7 -9 51 -64 97 -122 120 -152 394 -428
412 -415 178 130 356 219 756 378 102 41 194 77 205 82 11 4 25 9 30 11 9 2
133 53 180 74 11 5 65 28 120 51 137 59 371 176 485 244 130 77 134 79 140 85
3 3 34 25 70 49 306 209 553 493 701 806 79 169 149 403 175 585 4 30 8 62 9
70 25 168 24 567 0 740 -2 14 -4 39 -5 55 l-2 30 -8 -26 c-4 -14 -10 -52 -14
-85 -3 -32 -9 -72 -12 -89 -25 -142 -38 -209 -51 -260 -8 -33 -17 -71 -19 -85
-3 -14 -23 -83 -45 -155 -123 -395 -293 -687 -544 -939 -245 -245 -518 -415
-1000 -621 -99 -42 -194 -83 -211 -90 -16 -8 -68 -30 -114 -50 -128 -55 -151
-65 -213 -97 -31 -16 -61 -27 -66 -24 -4 3 -11 25 -15 48 -4 24 -18 90 -32
148 -14 58 -27 112 -29 120 -2 8 -18 74 -35 145 -30 125 -34 141 -44 193 -3
13 -7 31 -10 40 -6 19 -10 41 -31 167 -22 138 -24 153 -32 250 -37 477 82 817
386 1099 76 71 184 147 412 290 122 77 274 177 339 223 503 359 802 755 949
1259 52 176 79 348 87 544 3 80 8 151 10 159 5 15 13 7 179 -174 157 -171 407
-474 495 -601 8 -12 54 -78 102 -147 86 -122 215 -324 262 -409 13 -24 38 -70
56 -103 175 -316 312 -661 389 -985 32 -130 36 -153 47 -229 3 -25 8 -57 10
-71 19 -112 25 -440 10 -585 -31 -313 -127 -601 -299 -905 -203 -356 -428
-616 -757 -873 -96 -75 -281 -182 -427 -247 -103 -46 -267 -105 -315 -114 -13
-2 -41 -9 -63 -15 -51 -13 -181 -38 -260 -48 -74 -10 -438 -11 -521 -1 -33 4
-102 14 -152 23 -51 8 -111 13 -135 10 -109 -13 -300 -86 -545 -208 l-163 -81
61 -38 c90 -58 310 -171 440 -226 203 -87 530 -188 700 -217 14 -2 54 -9 90
-15 36 -7 85 -14 110 -16 25 -3 50 -7 57 -9 31 -10 229 -20 418 -20 217 0 357
9 482 29 21 4 54 9 73 11 19 3 46 7 60 10 14 3 41 8 60 11 19 4 71 15 115 26
44 10 87 21 96 23 221 50 593 201 823 334 49 28 93 51 97 51 5 0 9 5 9 10 0 6
5 10 10 10 15 0 220 141 330 227 151 117 324 281 450 422 36 41 70 79 76 85 6
6 48 61 94 121 150 197 277 405 383 628 26 53 47 99 47 102 0 2 11 28 24 57
57 127 151 421 182 573 17 81 54 301 59 350 4 33 9 71 11 85 9 47 11 525 4
605 -15 157 -21 210 -25 225 -2 8 -7 35 -10 60 -17 129 -80 384 -136 552 -351
1044 -1180 1869 -2227 2213 -162 54 -405 113 -532 130 -19 3 -46 7 -60 10 -13
2 -52 7 -86 11 -33 3 -74 8 -90 10 -32 5 -540 14 -546 10z"/>
</g>
</svg>
